<svg preserveAspectRatio="none" width="100%" height="100%" overflow="visible" style="display: block;" viewBox="0 0 28 28" fill="none" xmlns="http://www.w3.org/2000/svg">
<g id="Icon">
<path id="Vector" d="M12.8531 3.283C12.9031 3.01537 13.0451 2.77365 13.2546 2.5997C13.464 2.42576 13.7277 2.33054 13.9999 2.33054C14.2722 2.33054 14.5359 2.42576 14.7453 2.5997C14.9548 2.77365 15.0968 3.01537 15.1468 3.283L16.3729 9.76733C16.46 10.2283 16.6841 10.6524 17.0158 10.9841C17.3476 11.3159 17.7716 11.5399 18.2326 11.627L24.7169 12.8532C24.9846 12.9032 25.2263 13.0452 25.4002 13.2546C25.5742 13.4641 25.6694 13.7277 25.6694 14C25.6694 14.2723 25.5742 14.5359 25.4002 14.7454C25.2263 14.9548 24.9846 15.0968 24.7169 15.1468L18.2326 16.373C17.7716 16.4601 17.3476 16.6841 17.0158 17.0159C16.6841 17.3476 16.46 17.7717 16.3729 18.2327L15.1468 24.717C15.0968 24.9846 14.9548 25.2263 14.7453 25.4003C14.5359 25.5742 14.2722 25.6695 13.9999 25.6695C13.7277 25.6695 13.464 25.5742 13.2546 25.4003C13.0451 25.2263 12.9031 24.9846 12.8531 24.717L11.6269 18.2327C11.5399 17.7717 11.3158 17.3476 10.9841 17.0159C10.6523 16.6841 10.2283 16.4601 9.76728 16.373L3.28295 15.1468C3.01532 15.0968 2.7736 14.9548 2.59965 14.7454C2.4257 14.5359 2.33049 14.2723 2.33049 14C2.33049 13.7277 2.4257 13.4641 2.59965 13.2546C2.7736 13.0452 3.01532 12.9032 3.28295 12.8532L9.76728 11.627C10.2283 11.5399 10.6523 11.3159 10.9841 10.9841C11.3158 10.6524 11.5399 10.2283 11.6269 9.76733L12.8531 3.283Z" stroke="var(--stroke-0, white)" stroke-width="2.33333" stroke-linecap="round" stroke-linejoin="round"/>
<path id="Vector_2" d="M23.3333 2.33333V7" stroke="var(--stroke-0, white)" stroke-width="2.33333" stroke-linecap="round" stroke-linejoin="round"/>
<path id="Vector_3" d="M25.6667 4.66667H21" stroke="var(--stroke-0, white)" stroke-width="2.33333" stroke-linecap="round" stroke-linejoin="round"/>
<path id="Vector_4" d="M4.66667 25.6667C5.95533 25.6667 7 24.622 7 23.3333C7 22.0447 5.95533 21 4.66667 21C3.378 21 2.33333 22.0447 2.33333 23.3333C2.33333 24.622 3.378 25.6667 4.66667 25.6667Z" stroke="var(--stroke-0, white)" stroke-width="2.33333" stroke-linecap="round" stroke-linejoin="round"/>
</g>
</svg>
