<svg preserveAspectRatio="none" width="100%" height="100%" overflow="visible" style="display: block;" viewBox="0 0 28 28" fill="none" xmlns="http://www.w3.org/2000/svg">
<g id="Icon">
<path id="Vector" d="M14.9684 2.54334C14.6644 2.40468 14.3341 2.33292 14 2.33292C13.6659 2.33292 13.3357 2.40468 13.0317 2.54334L3.03336 7.09334C2.82634 7.18463 2.65032 7.33414 2.52675 7.52367C2.40318 7.71321 2.33739 7.93458 2.33739 8.16084C2.33739 8.3871 2.40318 8.60847 2.52675 8.79801C2.65032 8.98754 2.82634 9.13706 3.03336 9.22834L13.0434 13.79C13.3474 13.9287 13.6776 14.0004 14.0117 14.0004C14.3458 14.0004 14.676 13.9287 14.98 13.79L24.99 9.24001C25.1971 9.14872 25.3731 8.99921 25.4966 8.80968C25.6202 8.62014 25.686 8.39877 25.686 8.17251C25.686 7.94625 25.6202 7.72487 25.4966 7.53534C25.3731 7.34581 25.1971 7.19629 24.99 7.10501L14.9684 2.54334Z" stroke="var(--stroke-0, white)" stroke-width="2.33333" stroke-linecap="round" stroke-linejoin="round"/>
<path id="Vector_2" d="M2.33334 14C2.33278 14.2231 2.39624 14.4418 2.51617 14.6299C2.63611 14.8181 2.80749 14.9679 3.01 15.0617L13.0433 19.6233C13.3457 19.7603 13.6739 19.8311 14.0058 19.8311C14.3378 19.8311 14.6659 19.7603 14.9683 19.6233L24.9783 15.0733C25.1848 14.9805 25.3599 14.8296 25.4821 14.639C25.6043 14.4484 25.6685 14.2264 25.6667 14" stroke="var(--stroke-0, white)" stroke-width="2.33333" stroke-linecap="round" stroke-linejoin="round"/>
<path id="Vector_3" d="M2.33334 19.8333C2.33278 20.0565 2.39624 20.2751 2.51617 20.4633C2.63611 20.6514 2.80749 20.8013 3.01 20.895L13.0433 25.4567C13.3457 25.5936 13.6739 25.6644 14.0058 25.6644C14.3378 25.6644 14.6659 25.5936 14.9683 25.4567L24.9783 20.9067C25.1848 20.8138 25.3599 20.6629 25.4821 20.4724C25.6043 20.2818 25.6685 20.0597 25.6667 19.8333" stroke="var(--stroke-0, white)" stroke-width="2.33333" stroke-linecap="round" stroke-linejoin="round"/>
</g>
</svg>
