<svg viewBox="0 0 20 20" fill="none" xmlns="http://www.w3.org/2000/svg">
<path d="M10 0C4.477 0 0 4.477 0 10C0 14.42 2.865 18.166 6.839 19.489C7.339 19.579 7.521 19.271 7.521 19.005C7.521 18.763 7.512 18.044 7.508 17.094C4.726 17.696 4.139 15.776 4.139 15.776C3.685 14.628 3.029 14.319 3.029 14.319C2.121 13.693 3.098 13.706 3.098 13.706C4.101 13.777 4.629 14.745 4.629 14.745C5.521 16.273 6.97 15.836 7.54 15.579C7.629 14.94 7.889 14.503 8.175 14.251C5.955 13.997 3.62 13.155 3.62 9.373C3.62 8.294 4.01 7.414 4.649 6.727C4.546 6.473 4.203 5.473 4.747 4.132C4.747 4.132 5.587 3.861 7.497 5.121C8.295 4.896 9.15 4.784 10 4.78C10.85 4.784 11.705 4.896 12.505 5.121C14.413 3.861 15.251 4.132 15.251 4.132C15.797 5.473 15.454 6.473 15.351 6.727C15.992 7.414 16.378 8.294 16.378 9.373C16.378 13.165 14.039 13.994 11.813 14.244C12.172 14.555 12.492 15.171 12.492 16.113C12.492 17.456 12.48 18.541 12.48 19.005C12.48 19.274 12.66 19.584 13.167 19.488C17.137 18.163 20 14.418 20 10C20 4.477 15.523 0 10 0Z" fill="white"/>
</svg>

