<svg preserveAspectRatio="none" width="100%" height="100%" overflow="visible" style="display: block;" viewBox="0 0 32 32" fill="none" xmlns="http://www.w3.org/2000/svg">
<g id="Icon">
<path id="Vector" d="M21.3333 28V25.3333C21.3333 23.9188 20.7714 22.5623 19.7712 21.5621C18.771 20.5619 17.4145 20 16 20H8C6.58551 20 5.22896 20.5619 4.22876 21.5621C3.22857 22.5623 2.66667 23.9188 2.66667 25.3333V28" stroke="var(--stroke-0, #38EFE9)" stroke-width="2.66667" stroke-linecap="round" stroke-linejoin="round"/>
<path id="Vector_2" d="M21.3333 4.17065C22.477 4.46715 23.4899 5.13501 24.2129 6.0694C24.936 7.0038 25.3283 8.15184 25.3283 9.33332C25.3283 10.5148 24.936 11.6628 24.2129 12.5972C23.4899 13.5316 22.477 14.1995 21.3333 14.496" stroke="var(--stroke-0, #38EFE9)" stroke-width="2.66667" stroke-linecap="round" stroke-linejoin="round"/>
<path id="Vector_3" d="M29.3333 28V25.3333C29.3325 24.1516 28.9391 23.0037 28.2152 22.0698C27.4912 21.1358 26.4775 20.4688 25.3333 20.1733" stroke="var(--stroke-0, #38EFE9)" stroke-width="2.66667" stroke-linecap="round" stroke-linejoin="round"/>
<path id="Vector_4" d="M12 14.6667C14.9455 14.6667 17.3333 12.2789 17.3333 9.33333C17.3333 6.38781 14.9455 4 12 4C9.05448 4 6.66667 6.38781 6.66667 9.33333C6.66667 12.2789 9.05448 14.6667 12 14.6667Z" stroke="var(--stroke-0, #38EFE9)" stroke-width="2.66667" stroke-linecap="round" stroke-linejoin="round"/>
</g>
</svg>
