<svg viewBox="0 0 20 20" fill="none" xmlns="http://www.w3.org/2000/svg">
<path d="M10 2C12.717 2 13.056 2.01 14.122 2.06C15.187 2.11 15.912 2.277 16.55 2.525C17.21 2.779 17.766 3.123 18.322 3.678C18.8305 4.1779 19.224 4.78259 19.475 5.45C19.722 6.087 19.89 6.813 19.94 7.878C19.987 8.944 20 9.283 20 12C20 14.717 19.99 15.056 19.94 16.122C19.89 17.187 19.722 17.912 19.475 18.55C19.2247 19.2178 18.8311 19.8226 18.322 20.322C17.822 20.8303 17.2173 21.2238 16.55 21.475C15.913 21.722 15.187 21.89 14.122 21.94C13.056 21.987 12.717 22 10 22C7.283 22 6.944 21.99 5.878 21.94C4.813 21.89 4.088 21.722 3.45 21.475C2.78233 21.2245 2.17753 20.8309 1.678 20.322C1.16941 19.8222 0.775931 19.2175 0.525 18.55C0.277 17.913 0.11 17.187 0.06 16.122C0.013 15.056 0 14.717 0 12C0 9.283 0.01 8.944 0.06 7.878C0.11 6.812 0.277 6.088 0.525 5.45C0.775236 4.78218 1.1688 4.17732 1.678 3.678C2.17767 3.16923 2.78243 2.77573 3.45 2.525C4.088 2.277 4.812 2.11 5.878 2.06C6.944 2.013 7.283 2 10 2ZM10 7C8.67392 7 7.40215 7.52678 6.46447 8.46447C5.52678 9.40215 5 10.6739 5 12C5 13.3261 5.52678 14.5979 6.46447 15.5355C7.40215 16.4732 8.67392 17 10 17C11.3261 17 12.5979 16.4732 13.5355 15.5355C14.4732 14.5979 15 13.3261 15 12C15 10.6739 14.4732 9.40215 13.5355 8.46447C12.5979 7.52678 11.3261 7 10 7ZM16.5 6.75C16.5 6.41848 16.3683 6.10054 16.1339 5.86612C15.8995 5.6317 15.5815 5.5 15.25 5.5C14.9185 5.5 14.6005 5.6317 14.3661 5.86612C14.1317 6.10054 14 6.41848 14 6.75C14 7.08152 14.1317 7.39946 14.3661 7.63388C14.6005 7.8683 14.9185 8 15.25 8C15.5815 8 15.8995 7.8683 16.1339 7.63388C16.3683 7.39946 16.5 7.08152 16.5 6.75ZM10 9C10.7956 9 11.5587 9.31607 12.1213 9.87868C12.6839 10.4413 13 11.2044 13 12C13 12.7956 12.6839 13.5587 12.1213 14.1213C11.5587 14.6839 10.7956 15 10 15C9.20435 15 8.44129 14.6839 7.87868 14.1213C7.31607 13.5587 7 12.7956 7 12C7 11.2044 7.31607 10.4413 7.87868 9.87868C8.44129 9.31607 9.20435 9 10 9Z" fill="white"/>
</svg>

