<svg preserveAspectRatio="none" width="100%" height="100%" overflow="visible" style="display: block;" viewBox="0 0 32 32" fill="none" xmlns="http://www.w3.org/2000/svg">
<g id="Icon">
<path id="Vector" d="M6 22C4 23.68 3.33333 28.6667 3.33333 28.6667C3.33333 28.6667 8.32 28 10 26C10.9467 24.88 10.9333 23.16 9.88 22.12C9.36174 21.6254 8.67906 21.3395 7.96297 21.3174C7.24688 21.2952 6.54784 21.5383 6 22Z" stroke="var(--stroke-0, #38EFE9)" stroke-width="2.66667" stroke-linecap="round" stroke-linejoin="round"/>
<path id="Vector_2" d="M16 20L12 16C12.7095 14.1592 13.6029 12.3948 14.6667 10.7333C16.2202 8.24932 18.3835 6.20407 20.9507 4.79213C23.5178 3.38018 26.4036 2.6485 29.3333 2.66667C29.3333 6.29334 28.2933 12.6667 21.3333 17.3333C19.6492 18.3983 17.8625 19.2917 16 20Z" stroke="var(--stroke-0, #38EFE9)" stroke-width="2.66667" stroke-linecap="round" stroke-linejoin="round"/>
<path id="Vector_3" d="M12 16H5.33333C5.33333 16 6.06667 11.96 8 10.6667C10.16 9.22669 14.6667 10.6667 14.6667 10.6667" stroke="var(--stroke-0, #38EFE9)" stroke-width="2.66667" stroke-linecap="round" stroke-linejoin="round"/>
<path id="Vector_4" d="M16 20V26.6667C16 26.6667 20.04 25.9333 21.3333 24C22.7733 21.84 21.3333 17.3333 21.3333 17.3333" stroke="var(--stroke-0, #38EFE9)" stroke-width="2.66667" stroke-linecap="round" stroke-linejoin="round"/>
</g>
</svg>
